<svg class="svg-icon" style="width: 1em; height: 1em;vertical-align: middle;fill: currentColor;overflow: hidden;" viewBox="0 0 1024 1024" version="1.1" xmlns="http://www.w3.org/2000/svg"><path d="M512 615.5c57.1616 0 103.5-46.3384 103.5-103.5S569.1616 408.5 512 408.5 408.5 454.8384 408.5 512 454.8384 615.5 512 615.5zM512 686c96.0976 0 174-77.9024 174-174S608.0976 338 512 338 338 415.9024 338 512 415.9024 686 512 686zM329.584 702.8424l-79.6096 19.5072c-20.6328-25.6688-37.572-54.4336-50.0096-85.4872l56.1784-59.5376C250.8264 556.4336 248 534.5472 248 512c0-22.5472 2.8264-44.4336 8.1448-65.3256l-56.1784-59.5376c12.4376-31.0536 29.376-59.8176 50.0096-85.4872l79.6096 19.5072c30.5064-29.1672 67.9936-51.0936 109.7032-63.0176l22.8072-78.4592C478.3776 177.256 495.0424 176 512 176c16.9576 0 33.6224 1.256 49.9056 3.6808l22.8072 78.4592c41.7096 11.9248 79.1968 33.8504 109.7032 63.0176l79.6096-19.5072c20.6328 25.6688 37.572 54.4336 50.0096 85.4872l-56.1784 59.5376C773.1736 467.5664 776 489.4528 776 512c0 22.5472-2.8264 44.4336-8.1448 65.3256l56.1784 59.5376c-12.4376 31.0536-29.376 59.8176-50.0096 85.4872l-79.6096-19.5072c-30.5064 29.1672-67.9936 51.0936-109.7032 63.0176l-22.8072 78.4592C545.6224 846.744 528.9576 848 512 848c-16.9576 0-33.6224-1.256-49.9056-3.6808l-22.8072-78.4592C397.5784 753.9352 360.0904 732.0096 329.584 702.8424z"  /></svg>